<svg xmlns="http://www.w3.org/2000/svg" viewBox="0 0 512 512" width="512" height="512" role="img" aria-label="Kimu">
  <defs>
    <linearGradient id="kimuGrad" x1="0" y1="0" x2="1" y2="1">
      <stop offset="0" stop-color="#6366f1"/>
      <stop offset="0.55" stop-color="#8b5cf6"/>
      <stop offset="1" stop-color="#a855f7"/>
    </linearGradient>
  </defs>
  <rect width="512" height="512" rx="104" ry="104" fill="url(#kimuGrad)"/>
  <svg x="74.11" y="64.00" width="363.79" height="384.00" viewBox="0 0 900 950">
    <path fill="#fff" fill-rule="evenodd" d="M525.00,439.50 L518.50,437.00 L513.50,420.00 L513.50,340.00 L517.50,325.00 L523.50,312.00 L546.50,281.00 L553.50,268.00 L553.50,225.00 L555.50,220.00 L562.00,214.50 L571.00,212.50 L610.00,213.50 L618.00,216.50 L623.50,224.00 L624.50,271.00 L622.50,276.00 L615.00,282.50 L591.00,283.50 L584.00,286.50 L579.50,291.00 L549.50,339.00 L547.50,346.00 L546.50,373.00 L549.00,377.50 L584.00,346.50 L687.50,248.00 L694.50,240.00 L702.50,224.00 L705.50,215.00 L708.50,191.00 L697.50,167.00 L697.50,155.00 L708.50,130.00 L695.50,90.00 L691.00,85.50 L678.00,79.50 L665.50,64.00 L662.50,54.00 L662.50,41.00 L670.50,24.00 L684.00,13.50 L697.00,9.50 L711.00,10.50 L719.00,13.50 L730.50,23.00 L737.50,34.00 L739.50,55.00 L737.50,63.00 L728.50,78.00 L739.50,117.00 L744.00,122.50 L748.00,122.50 L823.50,51.00 L825.50,48.00 L825.50,26.00 L829.50,17.00 L838.00,7.50 L846.00,2.50 L859.00,-0.50 L876.00,1.50 L886.00,7.50 L896.50,20.00 L899.50,29.00 L899.50,48.00 L897.50,55.00 L891.50,63.00 L886.00,68.50 L876.00,73.50 L865.00,75.50 L848.00,75.50 L793.50,127.00 L774.50,147.00 L775.50,165.00 L769.50,182.00 L758.00,192.50 L748.00,196.50 L743.50,201.00 L734.50,237.00 L722.50,260.00 L553.00,423.50 L542.00,432.50 L525.00,439.50 Z M308.00,920.50 L281.00,920.50 L276.50,917.00 L276.50,819.00 L275.50,813.00 L273.00,810.50 L211.00,810.50 L202.00,814.50 L198.50,819.00 L202.50,829.00 L202.50,834.00 L199.50,840.00 L175.00,865.50 L162.00,873.50 L155.00,873.50 L151.00,871.50 L119.50,840.00 L117.50,836.00 L117.50,826.00 L128.50,811.00 L146.00,793.50 L154.00,788.50 L162.00,788.50 L173.00,793.50 L188.00,781.50 L199.00,776.50 L273.00,776.50 L275.50,774.00 L278.50,749.00 L285.50,732.00 L297.50,716.00 L322.50,692.00 L320.00,688.50 L311.00,690.50 L198.00,691.50 L182.00,702.50 L95.00,791.50 L91.00,791.50 L70.50,772.00 L69.50,768.00 L116.50,720.00 L116.50,717.00 L94.00,694.50 L87.00,690.50 L12.00,690.50 L7.50,686.00 L7.50,660.00 L10.00,656.50 L14.00,655.50 L88.00,655.50 L99.00,657.50 L114.00,665.50 L140.00,689.50 L145.00,690.50 L167.00,669.50 L191.00,657.50 L223.00,655.50 L302.00,655.50 L314.00,653.50 L329.00,645.50 L342.50,632.00 L353.50,607.00 L353.50,445.00 L341.50,419.00 L311.00,387.50 L289.00,369.50 L271.00,364.50 L148.00,364.50 L132.00,363.50 L114.00,358.50 L98.00,349.50 L52.00,304.50 L35.00,304.50 L25.00,302.50 L15.00,297.50 L6.50,289.00 L1.50,280.00 L-0.50,272.00 L0.50,256.00 L7.50,242.00 L14.00,235.50 L24.00,229.50 L44.00,227.50 L52.00,229.50 L63.00,235.50 L70.50,243.00 L76.50,255.00 L77.50,270.00 L75.50,276.00 L77.50,280.00 L125.00,325.50 L139.00,329.50 L243.00,329.50 L245.50,327.00 L225.00,305.50 L187.50,271.00 L179.50,260.00 L171.50,240.00 L167.50,220.00 L168.50,142.00 L167.50,138.00 L149.50,119.00 L146.50,112.00 L145.50,100.00 L147.50,90.00 L154.50,78.00 L164.00,69.50 L178.00,64.50 L190.00,64.50 L205.00,69.50 L218.50,82.00 L224.50,99.00 L224.50,108.00 L219.50,120.00 L203.50,139.00 L202.50,224.00 L206.50,237.00 L211.50,245.00 L232.00,265.50 L367.50,394.00 L382.50,420.00 L388.50,445.00 L389.50,636.00 L387.50,653.00 L383.50,668.00 L373.50,685.00 L353.50,710.00 L323.50,739.00 L312.50,759.00 L310.50,793.00 L311.50,912.00 L310.50,918.00 L308.00,920.50 Z M435.00,949.50 L428.00,949.50 L424.00,947.50 L418.50,942.00 L416.50,936.00 L417.50,888.00 L421.00,882.50 L429.00,879.50 L433.50,875.00 L434.50,844.00 L440.50,826.00 L443.50,821.00 L493.50,771.00 L495.50,763.00 L492.50,755.00 L466.50,724.00 L460.00,717.50 L458.00,717.50 L436.50,748.00 L386.50,799.00 L381.50,808.00 L379.50,819.00 L379.50,937.00 L375.00,940.50 L349.00,939.50 L345.50,936.00 L344.50,932.00 L345.50,807.00 L348.50,796.00 L357.50,780.00 L418.50,717.00 L429.50,694.00 L433.50,675.00 L433.50,276.00 L435.50,255.00 L442.50,231.00 L451.50,210.00 L494.50,128.00 L494.50,121.00 L490.50,110.00 L490.50,93.00 L495.50,82.00 L506.00,71.50 L515.00,66.50 L523.00,64.50 L537.00,64.50 L551.00,70.50 L561.50,82.00 L567.50,98.00 L566.50,112.00 L563.50,120.00 L555.00,130.50 L545.00,137.50 L529.00,141.50 L522.50,148.00 L498.50,198.00 L483.50,224.00 L475.50,241.00 L470.50,260.00 L468.50,306.00 L468.50,645.00 L473.50,667.00 L482.50,690.00 L491.50,703.00 L513.50,726.00 L521.50,737.00 L528.50,753.00 L529.50,769.00 L526.50,781.00 L519.50,793.00 L473.50,840.00 L468.50,849.00 L467.50,861.00 L469.50,876.00 L473.00,879.50 L479.00,881.50 L484.50,887.00 L486.50,892.00 L487.50,928.00 L484.50,941.00 L481.00,945.50 L474.00,948.50 L435.00,949.50 Z M617.00,920.50 L582.00,919.50 L574.50,910.00 L574.50,862.00 L581.00,852.50 L589.00,850.50 L592.50,847.00 L592.50,760.00 L580.50,740.00 L534.50,693.00 L517.50,663.00 L514.50,651.00 L513.50,634.00 L513.50,549.00 L516.50,524.00 L526.50,501.00 L538.50,485.00 L727.00,305.50 L772.00,260.50 L813.50,223.00 L818.50,214.00 L818.50,194.00 L826.50,181.00 L838.00,170.50 L852.00,167.50 L866.00,168.50 L875.00,172.50 L882.50,179.00 L892.50,195.00 L893.50,216.00 L888.50,227.00 L883.00,233.50 L874.00,239.50 L863.00,242.50 L844.00,241.50 L837.00,246.50 L561.50,512.00 L553.50,525.00 L548.50,542.00 L548.50,600.00 L554.50,622.00 L559.50,632.00 L569.00,641.50 L583.00,651.50 L598.00,655.50 L667.00,655.50 L710.00,657.50 L720.00,660.50 L736.00,669.50 L759.00,690.50 L791.00,662.50 L802.00,657.50 L825.00,656.50 L830.50,651.00 L834.50,643.00 L840.00,639.50 L856.00,637.50 L886.00,638.50 L892.00,641.50 L898.50,650.00 L898.50,698.00 L891.00,706.50 L839.00,707.50 L831.50,701.00 L829.50,695.00 L825.00,690.50 L812.00,690.50 L805.00,694.50 L793.50,706.00 L785.50,716.00 L785.50,720.00 L810.50,747.00 L831.50,766.00 L830.50,772.00 L813.00,790.50 L809.00,791.50 L714.00,696.50 L703.00,690.50 L583.00,688.50 L580.50,691.00 L605.50,716.00 L617.50,732.00 L623.50,748.00 L626.50,772.00 L631.00,776.50 L715.00,777.50 L729.00,785.50 L769.50,826.00 L769.50,830.00 L756.50,844.00 L752.00,848.50 L746.00,849.50 L709.00,813.50 L704.00,810.50 L631.00,810.50 L626.50,816.00 L626.50,848.00 L630.00,851.50 L637.00,853.50 L642.50,859.00 L643.50,906.00 L642.50,912.00 L638.00,917.50 L633.00,919.50 L617.00,920.50 Z"/>
  </svg>
</svg>
